{"title":"WSOF 21 -={SPARROW}=-","uid":11995495,"size":1712198853,"categoryP":"video","categoryS":"tv_shows","magnet":"?xt=urn:btih:b261e9d0b176b384f851897dc7587ace816d0d43&amp;dn=WSOF+21+-%3D%7BSPARROW%7D%3D-&amp;tr=udp%3A%2F%2Ftracker.openbittorrent.com%3A80&amp;tr=udp%3A%2F%2Fopen.demonii.com%3A1337&amp;tr=udp%3A%2F%2Ftracker.coppersurfer.tk%3A6969&amp;tr=udp%3A%2F%2Fexodus.desync.com%3A6969","seeders":3,"leechers":3,"uploader":"CenaCme","files":2,"time":1433621898,"description":"Format                                   : MPEG-4\nFormat profile                           : Base Media\nCodec ID                                 : isom\nFile size                                : 1.59 GiB\nDuration                                 : 1h 31mn\nOverall bit rate                         : 2 507 Kbps\nWriting application                      : Lavf54.63.104\n\nVideo\nID                                       : 1\nFormat                                   : AVC\nFormat/Info                              : Advanced Video Codec\nFormat profile                           : Main@L4\nFormat settings, CABAC                   : Yes\nFormat settings, ReFrames                : 4 frames\nCodec ID                                 : avc1\nCodec ID/Info                            : Advanced Video Coding\nDuration                                 : 1h 31mn\nBit rate                                 : 2 434 Kbps\nWidth                                    : 960 pixels\nHeight                                   : 540 pixels\nDisplay aspect ratio                     : 16:9\nFrame rate mode                          : Variable\nFrame rate                               : 29.970 fps\nMinimum frame rate                       : 29.970 fps\nMaximum frame rate                       : 30.000 fps\nColor space                              : YUV\nChroma subsampling                       : 4:2:0\nBit depth                                : 8 bits\nScan type                                : Progressive\nBits/(Pixel*Frame)                       : 0.157\nStream size                              : 1.55 GiB (97%)\n\nAudio\nID                                       : 2\nFormat                                   : AAC\nFormat/Info                              : Advanced Audio Codec\nFormat profile                           : LC\nCodec ID                                 : 40\nDuration                                 : 1h 31mn\nDuration_LastFrame                       : -21ms\nBit rate mode                            : Constant\nBit rate                                 : 64.0 Kbps\nChannel(s)                               : 2 channels\nChannel positions                        : Front: L R\nSampling rate                            : 48.0 KHz\nCompression mode                         : Lossy\nStream size                              : 41.7 MiB (3%)\nLanguage                                 : English\n\n\nScreens:\n &lt;a href=&quot;\nhttp://imgsparrow.co/image/7L&quot; rel=&quot;nofollow&quot; target=&quot;_NEW&quot;&gt;\nhttp://imgsparrow.co/image/7L&lt;/a&gt;","torrent":{"xt":"urn:btih:b261e9d0b176b384f851897dc7587ace816d0d43","amp;dn":"WSOF+21+-%3D%7BSPARROW%7D%3D-","amp;tr":["udp%3A%2F%2Ftracker.openbittorrent.com%3A80","udp%3A%2F%2Fopen.demonii.com%3A1337","udp%3A%2F%2Ftracker.coppersurfer.tk%3A6969","udp%3A%2F%2Fexodus.desync.com%3A6969"],"infoHash":"b261e9d0b176b384f851897dc7587ace816d0d43","infoHashBuffer":{"type":"Buffer","data":[178,97,233,208,177,118,179,132,248,81,137,125,199,88,122,206,129,109,13,67]},"announce":[],"urlList":[]}}